<svg xmlns="http://www.w3.org/2000/svg" width="1649.236" height="443.791" viewBox="0 0 1649.236 443.791">
  <g id="logo_blue" transform="translate(-92.227 -110.568)">
    <g id="logo-icon" transform="translate(92.227 110.568)">
      <g id="layer101">
        <path id="Path_1" data-name="Path 1" d="M0,214.844V0H536.765V429.688H0Z" fill="none"/>
      </g>
      <g id="layer102" transform="translate(28.451 16.58)">
        <path id="Path_2" data-name="Path 2" d="M926.91,3479.527c-11.882-11.191-27.978-18.169-50.292-21.692-9.879-1.52-33.5-1.52-46.63.069a403.99,403.99,0,0,0-47.6,8.773,55.493,55.493,0,0,1-8.428,1.8c-.207-.137,11.26-10.845,25.422-23.695,14.093-12.85,38.755-35.37,54.713-49.877,16.1-14.645,32.192-28.738,35.992-31.432,3.8-2.763,7.323-5.319,7.737-5.734,1.451-1.382,12.849-3.73,17.892-3.73a34.233,34.233,0,0,1,22.866,8.635c3.661,3.247,11.951,14.024,11.951,15.544a3.008,3.008,0,0,0,1.174,1.8c.691.483,1.036,1.1.76,1.312-.276.277-1.382-.552-2.418-1.8-5.665-6.908-15.751-12.643-25.146-14.438-4.559-.9-13.126-.9-15.405-.07-3.661,1.452-14.231,13.127-26.182,29.083-6.7,8.911-17.27,22.936-23.557,31.156l-11.329,14.923h15.336c16.3-.069,24.524.828,37.028,3.937a168.608,168.608,0,0,1,26.113,9.672c1.934.967,3.73,1.8,3.869,1.8a8.87,8.87,0,0,0,1.658-2.9c2.072-4.628,25.629-54.3,27.978-59.065,1.243-2.349,2.28-4.144,2.418-4.006.207.139-.484,3.454-1.451,7.392-1.658,6.494-13.264,54.505-13.885,57.407-.138.622-.069,1.036.138.9.276-.138,3.73-2.072,7.737-4.353a315.018,315.018,0,0,1,67.009-27.839c22.382-6.078,40.758-8.5,65.627-8.566,25.906-.069,42.485,2,68.943,8.7,4.628,1.174,8.635,2,8.773,1.8.207-.139-7.323-23.005-16.649-50.707s-17.478-51.88-18.1-53.677c-1.243-3.937-2.97-4.905-11.191-6.425-17.063-3.108-41.38,1.8-67.493,13.609a213.507,213.507,0,0,0-27.425,14.507,37.33,37.33,0,0,1-4.352,2.694c-.76,0-9.6,6.494-12.089,8.912-1.451,1.312-2.625,2-2.625,1.519s-.414-.622-.829-.415c-2.694,1.383,18.238-18.167,24.455-22.8a223.739,223.739,0,0,1,48.91-27.287c25.767-10.086,45.18-12.021,56.3-5.458,2.625,1.589,1.934.139,11.468,23.418,4.214,10.432,9.188,22.59,10.984,26.942s10.017,24.455,18.307,44.559c8.29,20.171,16.718,40.62,18.721,45.524,2.072,4.905,3.592,9.05,3.454,9.257-.207.139-4.629-.967-9.879-2.487-31.916-9.327-60.93-13.2-91.74-12.365-37.3,1.105-71.223,8.22-106.869,22.52-8.842,3.524-27.909,12.09-29.153,13.125-.414.277-3.73,2.074-7.323,3.938s-9.326,4.973-12.78,6.977c-3.385,2-6.494,3.662-6.908,3.592C932.574,3484.5,929.88,3482.289,926.91,3479.527Z" transform="translate(-748.944 -3084.587)" fill="#082cbd"/>
        <path id="Path_3" data-name="Path 3" d="M1651.177,530.35a20.6,20.6,0,0,1-.76-3.523c0-.484-.276-.691-.691-.484-.414.276-.691-.691-.691-2.418,0-4.421-8.428-35.37-16.234-59.41-16.027-49.532-33.574-87.388-54.782-118.13-15.06-21.83-33.159-39.446-50.084-48.634-6.287-3.454-17.063-7.323-20.586-7.392l-2.349-.069,2.072-.691c3.661-1.244,23.419-.967,30.051.414,20.31,4.283,36.889,13.333,52.778,28.738,14.576,14.162,26.251,30.534,35.991,50.291,3.316,6.908,4.491,8.359,4.491,5.8,0-2.141,4.076-14.991,7.254-22.935,15.543-38.617,42.9-70.049,82.553-94.711,10.915-6.839,31.362-17.2,33.85-17.2.345,0-3.109,3.8-7.806,8.5a319.713,319.713,0,0,0-45.87,59.134c-6.08,10.086-18.653,35.646-23.212,47.39-12.988,33.435-21.07,67.907-24.731,106.04-1.658,17.27-2.073,51.6-.76,64.591.346,3.8.553,7.046.484,7.115C1652.006,532.906,1651.591,531.87,1651.177,530.35Z" transform="translate(-1429.482 -240)" fill="#082cbd"/>
        <path id="Path_4" data-name="Path 4" d="M637.573,1362.458c-.9-2.418-2-5.112-2.487-6.079s-1.52-3.178-2.28-5.042c-6.148-14.577-23.488-36.545-38.064-48.081-15.405-12.227-35.37-21.692-56.785-26.942-17.892-4.352-26.32-5.25-49.6-5.181-21.07,0-30.741.76-43.66,3.316-2.625.552-4.7.691-4.7.484,0-.553,21.484-7.185,32.468-10.017,24.386-6.424,51.6-9.809,74.332-9.257l13.125.345-.207-3.869c-1.589-22.659-15.474-55.749-37.3-89.046-3.592-5.457-6.356-10.086-6.217-10.293.414-.346,8.428,5.25,15.336,10.708,15.129,12.02,34.334,34.057,48.288,55.611,20.241,31.225,40.206,76.75,53.262,121.722,1.658,5.734,3.316,11.191,3.73,12.3.415,1.036.484,1.865.276,1.865-.276,0-.138.345.276.76a1.809,1.809,0,0,1,.414,1.727c-.207.552-.069.967.346.967s.553.691.276,1.52c-.207.76-.069,1.312.276,1.1s.691.967.76,2.625a10.565,10.565,0,0,1-.069,3.04A22.487,22.487,0,0,1,637.573,1362.458Z" transform="translate(-438.055 -1089.723)" fill="#082cbd"/>
        <path id="Path_5" data-name="Path 5" d="M3912.673,725.435c5.8-79.513,30.119-150.667,69.358-203.1a257.329,257.329,0,0,1,25.7-29.014c9.4-9.119,21.554-19.481,22.591-19.2.276.069,1.035-.414,1.727-.967,2.21-2.072,1.242.414-2.143,5.527-20.033,29.705-38.755,69.565-45.041,95.816-2.694,11.122-5.112,29.705-3.868,29.705.277,0,7.391-1.658,15.819-3.731,34.333-8.428,70.67-15.751,95.817-19.343,18.168-2.625,25.561-3.316,39.722-3.523,14.438-.276,14.922-.276,10.293.622-6.631,1.313-12.918,3.109-30.258,8.7-23.556,7.6-32.883,11.122-58.1,21.9-13.472,5.8-39.791,19-42.554,21.346a3.423,3.423,0,0,1-1.589.967c-.829,0-11.4,6.425-19.758,11.951-27.356,18.169-48.149,37.926-62.588,59.2-5.181,7.668-10.777,18.168-13.056,24.524C3912.673,732.481,3912.189,732.136,3912.673,725.435Z" transform="translate(-3670.669 -456.362)" fill="#082cbd"/>
        <path id="Path_6" data-name="Path 6" d="M4090,4182.4c0-.482.208-.69.483-.482a.827.827,0,0,1,0,.966C4090.207,4183.1,4090,4182.888,4090,4182.4Z" transform="translate(-3835.907 -3909.533)" fill="#082cbd"/>
        <path id="Path_7" data-name="Path 7" d="M411.922,2920.905a.831.831,0,0,1,.967,0c.207.277,0,.484-.484.484S411.714,2921.182,411.922,2920.905Z" transform="translate(-411.842 -2735.56)" fill="#082cbd"/>
        <path id="Path_8" data-name="Path 8" d="M1344.031,1984.054c-8.29-2-16.579-8.359-20.241-15.543-3.04-6.079-2.487-13.886,1.451-18.307,9.809-11.192,33.159-4.767,40.551,11.191,4.628,9.948.276,19.9-9.879,22.59C1351.147,1985.229,1348.936,1985.229,1344.031,1984.054Z" transform="translate(-1258.981 -1826.824)" fill="#082cbd"/>
        <path id="Path_9" data-name="Path 9" d="M5150.49,1533.768c-3.315-.9-7.667-5.112-8.981-8.5a19.943,19.943,0,0,1-.966-8.152c.69-13.125,12.366-25.146,25.285-25.975,5.25-.345,8.564.691,12.019,3.8,3.662,3.316,4.973,7.185,4.628,13.471a24.991,24.991,0,0,1-7.184,16.442C5167.83,1532.87,5158.642,1536.186,5150.49,1533.768Z" transform="translate(-4813.844 -1404.654)" fill="#082cbd"/>
        <path id="Path_10" data-name="Path 10" d="M2973.954,960.086c-8.428-3.661-13.955-13.126-13.955-23.972,0-19.619,17.616-29.429,30.051-16.649,9.119,9.326,10.017,26.527,2,36.061C2988.047,960.363,2979.481,962.5,2973.954,960.086Z" transform="translate(-2783.969 -867.172)" fill="#082cbd"/>
      </g>
    </g>
    <path id="Path_19" data-name="Path 19" d="M171.688,86.637h-6.936a72.3,72.3,0,0,0,1.047-10.6q0-5.234-4.389-6.87t-33.08-1.636l-19.126.131L94.812,125.371h27.047q12.806,0,15.746-1.9t4.247-9.487h7.459q-4.188,15.834-7.459,34.809h-6.674q.654-6.15.654-9.553,0-1.439-1.832-3.533a5.643,5.643,0,0,0-3.4-1.439,66.467,66.467,0,0,0-11-.654H92.757q-11.6,44.437-24.119,69.662,12.178-3.84,21.608-3.84,15.713,0,38.5,4.973,12.047,2.748,16.37,2.748a14.306,14.306,0,0,0,9.3-2.867q3.535-2.867,3.535-6.514A22.213,22.213,0,0,0,156.164,191a19.258,19.258,0,0,1-1.1-6.124,7.254,7.254,0,0,1,2.421-5.343,8.069,8.069,0,0,1,5.823-2.345,8.494,8.494,0,0,1,6.739,3.141,12.457,12.457,0,0,1,2.683,8.375q0,11.123-9.756,19.5t-25.733,8.375a197.121,197.121,0,0,1-21.216-1.439Q87.874,212,73.077,212a383.034,383.034,0,0,0-45.312,3.141l2.071-7.31q15.529-4.28,18.294-6.289a15.054,15.054,0,0,0,4.607-5.9Q59.007,183.223,69,145.835T89.316,66.877a62.481,62.481,0,0,0-29.74,7.448A58.219,58.219,0,0,0,37.7,93.729a45.068,45.068,0,0,0-7.861,25.153,38.373,38.373,0,0,0,1.112,9.8,63.954,63.954,0,0,0,5.038,11.761q2.486,4.572,2.486,7.447a6.768,6.768,0,0,1-2.406,5.1,8.4,8.4,0,0,1-5.916,2.222q-5.073,0-8.064-5.1-4.421-7.459-4.421-20.283,0-27.48,20.807-49.334T99.061,58.633h44.885q23.293,0,34.416-3.01Q173.127,77.438,171.688,86.637Zm79.657-.523,1.307-5.627a231.855,231.855,0,0,0,33.619-5.762,248.263,248.263,0,0,0-9.941,32.979l-8.633,36.51q-9.287,39.522-20.927,59.674a103.82,103.82,0,0,0,19.87,2.225q22.878,0,39.872-9.618t26.995-28.069a84.017,84.017,0,0,0,10-40.7q0-29.182-17-46.913T282.055,63.082a91.151,91.151,0,0,0-43.668,10.992A87.661,87.661,0,0,0,205.9,103.19q-11.963,18.124-11.963,35.267,0,16.75,14.656,24.6,4.188,2.355,5.431,4.057a6.9,6.9,0,0,1,1.243,4.188,8.3,8.3,0,0,1-8.017,7.982q-6.964,0-13.536-9.16-8.937-12.824-8.937-26.3,0-22.508,13.413-43.511t37.36-33.435q23.947-12.432,53.26-12.432,36.117,0,57.513,19.3t21.4,48.483a88.878,88.878,0,0,1-14.906,49.792q-14.906,22.7-36.022,32.322t-42.168,9.618q-6.8,0-23.536-1.309-14.121-1.047-26.8-1.047-5.885,0-17.913.393l3.01-6.412q12.029-.654,14.971-2.094a12.387,12.387,0,0,0,5.034-4.842q3.793-6.02,10.33-26.172l9.019-34.154,10.459-42.66a22.7,22.7,0,0,0,.785-5.365,4.387,4.387,0,0,0-1.308-3.337A5.1,5.1,0,0,0,255,85.721,32.552,32.552,0,0,0,251.344,86.113ZM379.237,151.8h60.713L436.8,164.76H375.828ZM607.188,90.039h-7.066q2.225-10.992,2.225-14.133a7.281,7.281,0,0,0-3.007-6.412Q596.332,67.4,587.968,67.4l-8.363.131-2.744-.131H550.724q-.787,3.01-4.194,15.311-7.077,25.387-10.745,41.613h25.489q9.281,0,12.027-1.832t4.574-9.291h7.066q-4.057,16.488-7.066,34.416h-7.2q.916-7.459.916-8.768a5.03,5.03,0,0,0-3.139-4.711q-1.83-.916-9.935-1.178H533.55q-3.791,18.189-9.934,39.258T513.03,204.8a117.483,117.483,0,0,0,18.674,1.7,71.068,71.068,0,0,0,10.577-.785l-2.225,7.459a68.948,68.948,0,0,1-7.066.393q-2.879,0-18.059-.916Q505.9,212,499.621,212a168.152,168.152,0,0,0-27.088,2.355l1.57-7.2q11.646-2.486,15.376-5.234a18.507,18.507,0,0,0,5.692-6.674q4.057-7.982,15.18-49.465L530.373,67.4q-17.535.523-30.687,7.852a57.155,57.155,0,0,0-20.937,19.694q-7.786,12.366-7.786,25.06a44.1,44.1,0,0,0,1.309,10.469,37.337,37.337,0,0,0,3.664,8.637q3.795,6.936,3.795,9.684a6.268,6.268,0,0,1-2.225,4.776,8.214,8.214,0,0,1-5.758,2.028q-5.234,0-8.506-5.5-4.449-7.328-4.449-20.807,0-26.3,20.545-48.418,20.545-21.984,54.176-21.984h50.25a179.693,179.693,0,0,0,18.451-1.047A110.176,110.176,0,0,0,615.17,55.1Q608.5,82.449,607.188,90.039ZM596.98,214.225l1.57-7.066q13.74-2.617,18.386-6.02t8.375-12.1q3.729-8.7,10.142-35.921,8.506-35.986,15.441-51.82,10.6-23.816,26.368-35.332t31.864-11.516q10.338,0,17.4,5.234T733.6,70.541a7.428,7.428,0,0,1-2.157,5.365,6.94,6.94,0,0,1-5.163,2.225q-3.922,0-9.542-5.1-6.275-5.5-9.739-7.2a15.224,15.224,0,0,0-6.731-1.7,14.847,14.847,0,0,0-7.451,2.094q-5.1,2.879-10.916,10.927t-12.091,23.882q-4.067,10.73-10.367,35.332-9.841,39.127-14.959,51.951a52.815,52.815,0,0,1-8.9,15.18q18.713-4.057,29.836-4.057a89.95,89.95,0,0,1,12.824.851q5.889.851,20.545,4.253,12.693,3.01,17.8,3.01a12.241,12.241,0,0,0,8.44-3.088,9.227,9.227,0,0,0,3.468-7.031,20.024,20.024,0,0,0-1.832-6.964,19.171,19.171,0,0,1-1.7-6.7,7.432,7.432,0,0,1,2.094-5.586,7.548,7.548,0,0,1,5.5-2.036,8.256,8.256,0,0,1,6.674,3.468q2.748,3.468,2.748,9.487,0,11.385-9.422,19.629t-25.518,8.244q-7.982,0-20.545-1.178Q644.09,212,631,212A230.965,230.965,0,0,0,596.98,214.225ZM866.551,57.193l-2.225,7.066q-14.814.916-19.664,3.664a14.491,14.491,0,0,0-5.245,5.5q-2.482,4.711-14.507,49.988-3.92,14.918-19.995,81.525,9.16,3.01,23.162,2.617l-2.094,6.281q-4.188.131-16.75-1.047Q800.205,212,788.166,212a173.251,173.251,0,0,0-30.49,2.486l1.57-6.936q14.395-2.225,21.854-5.758a8.447,8.447,0,0,0,2.879-2.225q1.963-2.355,4.253-9.487t15.638-58.3Q807.795,117,819.834,67.139q-9.029-.262-22.115,2.486l2.486-7.2A74.113,74.113,0,0,1,811.459,60.4q5.758-.589,26.041-1.112Q856.475,58.764,866.551,57.193ZM899,68.055l1.57-7.721a49.989,49.989,0,0,1,10.992-1.047q12.824,0,15.572-.262,5.234-.262,14.525-1.57,0,24.411,7.684,54.335a484.468,484.468,0,0,1,39.17-47.531q12.43-13.348,23.291-18.713a36.59,36.59,0,0,1,16.355-3.795q6.279,0,9.289,2.29a7.145,7.145,0,0,1,3.01,5.954,6.84,6.84,0,0,1-2.748,5.758q-2.748,2.094-11.646,2.879-12.432,1.309-20.152,5.169T987.857,78.785a524.9,524.9,0,0,0-35.539,43.543,247.2,247.2,0,0,1,9.511,36.787,203.321,203.321,0,0,1,3.127,34.953q0,5.106-.262,11A46.81,46.81,0,0,0,976.08,206.5q5.234,0,14.133-.785l-1.57,7.459q-5.234.393-6.8.393-3.533,0-11.254-.785A94.256,94.256,0,0,0,959.723,212q-4.188,0-15.18,1.178a94.9,94.9,0,0,0,1.57-16,215.47,215.47,0,0,0-1.963-29.706,167,167,0,0,0-5.887-26.69l-21.2,29.869q-27.48,38.08-41.744,48.811t-26.434,10.73a9.924,9.924,0,0,1-7-2.355,7.4,7.4,0,0,1-2.552-5.627,7.26,7.26,0,0,1,2.617-5.692q2.617-2.29,9.947-3.206a49.316,49.316,0,0,0,24.082-9.553q13.35-10.207,34.158-38.865l24.99-34.424q-12.72-40.119-12.72-64.244-5.492-.262-7.976-.262A66.2,66.2,0,0,0,899,68.055Z" transform="translate(701 143)" fill="#082cbd"/>
    <path id="Path_20" data-name="Path 20" d="M58.008,93.045a31.659,31.659,0,0,1,.308-4.395q.308-2.2.7-4.351t.7-4.395a33.248,33.248,0,0,0,.308-4.526,41.065,41.065,0,0,0-5.01.264q-2.109.264-4.131.527t-4.307.4a50.76,50.76,0,0,1-5.537-.044q-2.373,2.637-5.405,5.625a61.313,61.313,0,0,1-6.46,5.537,39.164,39.164,0,0,1-7.207,4.263,18.356,18.356,0,0,1-7.646,1.714,14.673,14.673,0,0,1-5.054-.879A13.65,13.65,0,0,1,5.01,90.32a11.323,11.323,0,0,1-2.9-3.823,11.517,11.517,0,0,1-1.055-4.966,3.974,3.974,0,0,1,.483-2.153q.483-.747,2.065-.747.791,0,1.406,1.45a33.5,33.5,0,0,0,1.626,3.252,13.071,13.071,0,0,0,2.593,3.252,6.129,6.129,0,0,0,4.307,1.45,17.593,17.593,0,0,0,6.548-1.274,32.6,32.6,0,0,0,6.152-3.252,42.248,42.248,0,0,0,5.537-4.438q2.593-2.461,4.7-4.834a4.671,4.671,0,0,0-1.582-3.252q-1.318-1.055-2.769-2.109a10.482,10.482,0,0,1-2.593-2.812,10.413,10.413,0,0,1-1.143-5.537q0-5.361,3.252-8.394T40.518,49.1a15.552,15.552,0,0,1,3.3.352q1.626.352,3.3.835t3.3.835a15.551,15.551,0,0,0,3.3.352,4.68,4.68,0,0,0,1.714-.264,3.512,3.512,0,0,0,1.187-.791,10.627,10.627,0,0,0,1.143-1.406q.615-.879,1.582-2.109.527-.7,1.626-2.241t2.417-3.428q1.318-1.89,2.813-4t2.813-4.043q1.318-1.934,2.373-3.428t1.494-2.285a5.037,5.037,0,0,1,1.758-1.011,6.932,6.932,0,0,1,1.846-.22A1.809,1.809,0,0,1,78.047,27a3.911,3.911,0,0,1,.659,1.8,13.111,13.111,0,0,1,.088,2.153q-.044,1.1-.044,1.714V33.5q0,.571-.044,1.187t-.044,1.187v.747q-.264.879-.835,2.637t-1.274,4q-.7,2.241-1.45,4.7T73.7,52.7q-.659,2.285-1.187,4.043t-.7,2.637q-.088.439-.264,1.406t-.352,2.065q-.176,1.1-.352,2.065a8.99,8.99,0,0,0-.176,1.318,8.357,8.357,0,0,1,1.582.527,1.184,1.184,0,0,1,.791,1.143,1.71,1.71,0,0,1-.659,1.406,8.636,8.636,0,0,1-1.538.967,8.594,8.594,0,0,0-1.626,1.055,2.4,2.4,0,0,0-.835,1.758q-.176,1.055-.615,3.823t-1.011,5.889q-.571,3.12-1.055,5.845t-.747,3.779q-.088.264-.352.967a14.638,14.638,0,0,1-.615,1.406q-.352.7-.7,1.318T62.754,97a14.3,14.3,0,0,1-3.428-1.1Q58.008,95.242,58.008,93.045Zm-1.494-33.75a5.577,5.577,0,0,0-2.944,1.494,33.88,33.88,0,0,0-3.735,3.472,38.633,38.633,0,0,0-3.252,3.955,6.158,6.158,0,0,0-1.406,2.944q.527,0,2.065-.044t3.252-.088q1.714-.044,3.252-.132t2.153-.088a5.39,5.39,0,0,0,1.1-.176q.747-.176,1.45-.352t1.274-.352a2.293,2.293,0,0,0,.659-.264q.088,0,.088-.571v-.923a16.858,16.858,0,0,0-.22-2.2,18.389,18.389,0,0,0-.7-2.988,10.132,10.132,0,0,0-1.23-2.593A2.155,2.155,0,0,0,56.514,59.295Zm-24.7.088A5.947,5.947,0,0,0,32.7,62.2a15.7,15.7,0,0,0,5.01,5.361,5.234,5.234,0,0,0,2.813.967,4.743,4.743,0,0,0,2.9-1.494,26.327,26.327,0,0,0,3.208-3.472,32.708,32.708,0,0,0,2.593-3.823,6.658,6.658,0,0,0,1.055-2.549,2.607,2.607,0,0,0-1.011-2.241A6.258,6.258,0,0,0,46.89,53.89a12.935,12.935,0,0,0-2.856-.308H41.572a23.653,23.653,0,0,0-2.944.22,12.592,12.592,0,0,0-3.208.835,7.1,7.1,0,0,0-2.549,1.758A4.231,4.231,0,0,0,31.816,59.383ZM58.184,54.9a44.3,44.3,0,0,1,3.6,4.922q1.67,2.637,3.164,5.361l7.822-28.125ZM79.365,93.045v-1.23a2.623,2.623,0,0,1,.132-.835,4.255,4.255,0,0,1,.4-.835q.264-.439.7-1.143.7-1.23,2.637-4.307t4.131-6.5q2.2-3.428,4.175-6.5l2.769-4.307a.8.8,0,0,1,.483-.088h1.187a.915.915,0,0,1,.527.088q.088.088.4.439t.7.747q.4.4.7.747t.483.352a3.263,3.263,0,0,0,1.67-.527q.879-.527,1.8-1.187a18.453,18.453,0,0,1,1.89-1.187,4.165,4.165,0,0,1,2.021-.527,4.334,4.334,0,0,1,2.109.527,6.137,6.137,0,0,1,2.769,3.076,5.073,5.073,0,0,1,.4,1.934,13,13,0,0,1-.571,3.867q-.571,1.846-1.274,3.647t-1.274,3.6a12.284,12.284,0,0,0-.571,3.735,6.349,6.349,0,0,0,.439,2.769q.439.835,2.461.835a14.49,14.49,0,0,0,4.526-.7,14.209,14.209,0,0,1,4.438-.7,5.039,5.039,0,0,1-1.274,3.516,9.245,9.245,0,0,1-3.164,2.241,15.308,15.308,0,0,1-4.043,1.143,27.873,27.873,0,0,1-3.911.308q-3.34,0-4.878-1.89a7.765,7.765,0,0,1-1.538-5.054,10.441,10.441,0,0,1,.747-3.955q.747-1.846,1.67-3.6t1.714-3.516a9.1,9.1,0,0,0,.791-3.779,7.562,7.562,0,0,0-.176-1.406,1.028,1.028,0,0,0-1.143-.879A8.206,8.206,0,0,0,99.185,73.8a20.36,20.36,0,0,0-4.219,4.658,46.51,46.51,0,0,0-3.428,6.064q-1.538,3.252-2.9,6.064a39.784,39.784,0,0,1-2.593,4.658q-1.23,1.846-2.549,1.846a4.041,4.041,0,0,1-2.988-1.143A3.93,3.93,0,0,1,79.365,93.045Zm82.969-7.559a17.088,17.088,0,0,1,2.549-7.954,40.925,40.925,0,0,1,5.405-6.987,67.157,67.157,0,0,1,6.592-6.021q3.472-2.769,6.108-5.142a3.182,3.182,0,0,0-.483-1.406,9.261,9.261,0,0,1-.747-3.076,14.48,14.48,0,0,1,1.758-7.075,17.606,17.606,0,0,1,4.614-5.449,22.44,22.44,0,0,1,13.667-4.7,3.382,3.382,0,0,1,2.637,1.187,8.852,8.852,0,0,1,1.67,2.856,15.414,15.414,0,0,1,.835,3.428,24.241,24.241,0,0,1,.22,2.9h-3.076a9.913,9.913,0,0,0-.22-2.021,6.314,6.314,0,0,0-.7-1.89,4.739,4.739,0,0,0-1.23-1.406,3.021,3.021,0,0,0-1.89-.571,10.539,10.539,0,0,0-4.395,1.1,20.258,20.258,0,0,0-4.438,2.813,16.9,16.9,0,0,0-3.472,3.911,8.1,8.1,0,0,0-1.406,4.395A1.788,1.788,0,0,0,187.075,56a4.845,4.845,0,0,0,1.934.659,17.094,17.094,0,0,0,2.5.176,22.7,22.7,0,0,1,2.5.132,4.088,4.088,0,0,1,1.934.659,1.9,1.9,0,0,1,.747,1.67,5.264,5.264,0,0,1-.176,1.362,1.823,1.823,0,0,1-1.055,1.1,60.093,60.093,0,0,0-9.185,3.12,37.6,37.6,0,0,0-7.427,4.307,36.877,36.877,0,0,0-6.2,5.933,57.425,57.425,0,0,0-5.581,8.174q0,.176-.044.879t-.044.879a6.123,6.123,0,0,0,1.8,4.79,6.878,6.878,0,0,0,4.79,1.626,31,31,0,0,0,7.515-1.055q4.175-1.055,8.13-2.285t7.251-2.285a18.04,18.04,0,0,1,4.878-1.055,5.887,5.887,0,0,1-1.67,3.691,16.417,16.417,0,0,1-4.131,3.208,36.18,36.18,0,0,1-5.757,2.593,52.216,52.216,0,0,1-12.92,2.813,28.544,28.544,0,0,1-5.493,0,7.475,7.475,0,0,1-4-1.055,8.922,8.922,0,0,1-2.812-2.725,13.1,13.1,0,0,1-1.67-3.735A15.279,15.279,0,0,1,162.334,85.486Zm43.857-11.338q2.373-.264,5.142-.659T217,72.7q2.9-.4,5.757-.659t5.405-.264q.7,0,1.494-.044a4.522,4.522,0,0,1,1.538.176,4.023,4.023,0,0,1,1.362.7,2.718,2.718,0,0,1,.879,1.538,4.459,4.459,0,0,1-2.109,1.714,19.618,19.618,0,0,1-3.779,1.274,42.62,42.62,0,0,1-4.658.835q-2.461.308-4.57.527t-3.647.264q-1.538.044-1.8.044a17.315,17.315,0,0,1-1.934-.132,13.263,13.263,0,0,1-2.2-.439,7.941,7.941,0,0,1-1.8-.747q-.747-.439-.747-.967ZM273.6,78.982a3.426,3.426,0,0,0-2.461,1.362,39.106,39.106,0,0,0-2.681,3.384q-1.45,2.021-3.208,4.438a28.683,28.683,0,0,1-4,4.438,21.474,21.474,0,0,1-5.054,3.384,14.538,14.538,0,0,1-6.416,1.362q-1.67,0-3.823-.132a17.661,17.661,0,0,1-4.043-.7,7.424,7.424,0,0,1-3.164-1.846,4.812,4.812,0,0,1-1.274-3.56,9.045,9.045,0,0,1,1.89-5.581A19.91,19.91,0,0,1,244.292,81a36.789,36.789,0,0,1,6.768-3.516,76.839,76.839,0,0,1,7.427-2.549q3.691-1.055,6.943-1.714t5.273-1.011l17.139-27.334a23.924,23.924,0,0,1,3.076-3.867,34.318,34.318,0,0,1,4.219-3.735,25.855,25.855,0,0,1,4.79-2.856,11.54,11.54,0,0,1,4.79-1.143,13.4,13.4,0,0,1,1.626.176,4.651,4.651,0,0,1,2.373,1.23,8.832,8.832,0,0,1,2.109,3.428,19.425,19.425,0,0,1,.923,6.768,3.489,3.489,0,0,0-1.143.571,13.892,13.892,0,0,1-1.187.791,8.839,8.839,0,0,1-1.494.7,5.439,5.439,0,0,1-1.89.308q1.406-2.9,1.011-4.614a3.125,3.125,0,0,0-1.8-2.329,6.193,6.193,0,0,0-3.516-.264,14.162,14.162,0,0,0-4.219,1.45,14.985,14.985,0,0,0-3.823,2.856,9.975,9.975,0,0,0-2.417,3.955L276.416,73.445v1.143a20.056,20.056,0,0,1,5.493,5.537,27.621,27.621,0,0,1,2.9,6.021,43.227,43.227,0,0,1,1.538,5.933,33.05,33.05,0,0,0,1.362,5.229,10.276,10.276,0,0,0,2.373,3.867,7.539,7.539,0,0,0,4.614,1.89,1.2,1.2,0,0,0,.044.264,1.2,1.2,0,0,1,.044.264,1.854,1.854,0,0,1-.835,1.626,6.435,6.435,0,0,1-1.978.879,12.487,12.487,0,0,1-2.329.4q-1.187.088-1.89.088a11.848,11.848,0,0,1-3.032-4.219,42.917,42.917,0,0,1-2.065-5.669q-.879-3.032-1.626-6.152a44.348,44.348,0,0,0-1.714-5.625,16,16,0,0,0-2.285-4.175A4.416,4.416,0,0,0,273.6,78.982Zm-31.377,10.9a2.049,2.049,0,0,0,.747,1.67,4.509,4.509,0,0,0,1.8.879,13.2,13.2,0,0,0,2.153.352q1.1.088,1.714.088a13.267,13.267,0,0,0,5.273-1.274,23.856,23.856,0,0,0,5.405-3.3,21.186,21.186,0,0,0,4.219-4.526,8.883,8.883,0,0,0,1.714-5.054,33.567,33.567,0,0,0-12.788,2.417,23.442,23.442,0,0,0-10.151,8.218,1.2,1.2,0,0,1-.044.264A1.2,1.2,0,0,0,242.227,89.881ZM298.3,92.43a14.031,14.031,0,0,1-1.318-6.548,17.044,17.044,0,0,1,1.45-6.064,20.13,20.13,0,0,1,3.34-5.186,27.3,27.3,0,0,1,4.438-4.043A19.715,19.715,0,0,1,311,68a10.478,10.478,0,0,1,4.263-.747,4.019,4.019,0,0,1,2.9,1.362,4.678,4.678,0,0,1,.7,3.779,8.973,8.973,0,0,1-2.153,5.977,31.788,31.788,0,0,1-4.746,4.57q-2.593,2.021-4.746,3.647t-2.153,3.032a1.357,1.357,0,0,0,.923,1.23,8.464,8.464,0,0,0,2.153.659,23.525,23.525,0,0,0,2.461.308q1.23.088,1.758.176a121.013,121.013,0,0,1,12.393-2.153q4.131-.4,5.186.088t-.4,1.494a20.427,20.427,0,0,1-4.438,2.109,54.594,54.594,0,0,1-6.943,1.978,42.715,42.715,0,0,1-7.822,1.011,24.47,24.47,0,0,1-7.163-.747A7.956,7.956,0,0,1,298.3,92.43Zm15.381-20.039a6.3,6.3,0,0,0-3.34.967,12.4,12.4,0,0,0-2.856,2.417,15.468,15.468,0,0,0-2.153,3.164,18.612,18.612,0,0,0-1.318,3.208.675.675,0,0,0,.264.088h.264a5.261,5.261,0,0,0,2.813-1.055,16.345,16.345,0,0,0,2.988-2.593,18.489,18.489,0,0,0,2.373-3.208A6.119,6.119,0,0,0,313.682,72.391Zm14.941,18.9a29.938,29.938,0,0,1,2.988-9.229,34.163,34.163,0,0,1,5.054-7.339,28.218,28.218,0,0,1,6.2-5.142,19.233,19.233,0,0,1,6.5-2.593,11.794,11.794,0,0,1,5.845.308,8.056,8.056,0,0,1,4.351,3.516,8.539,8.539,0,0,1-.923,3.867q-.923,1.846-2.021,3.691t-2.021,3.779a9.469,9.469,0,0,0-.923,4.131,5.984,5.984,0,0,0,1.011,3.647,4.159,4.159,0,0,0,3.56,1.362,13.678,13.678,0,0,0,4.087-.615,13.391,13.391,0,0,1,4-.615q.352,0,1.187.044t1.1.044a9.479,9.479,0,0,1-2.725,2.549,22.091,22.091,0,0,1-3.516,1.8,19.047,19.047,0,0,1-3.823,1.1,20.948,20.948,0,0,1-3.647.352,5.567,5.567,0,0,1-2.812-.7A7.057,7.057,0,0,1,349.98,93.4a8.756,8.756,0,0,1-1.362-2.593,9,9,0,0,1-.483-2.856q-1.318,1.494-2.856,3.12a27.85,27.85,0,0,1-3.252,2.944,18.069,18.069,0,0,1-3.691,2.2,9.961,9.961,0,0,1-4.087.879,5.339,5.339,0,0,1-3.955-1.714A5.653,5.653,0,0,1,328.623,91.287Zm5.8-2.725q0,.7.044,1.582t1.1,1.143a16.975,16.975,0,0,0,5.01-2.329,32.66,32.66,0,0,0,5.273-4.219,26.331,26.331,0,0,0,4.131-5.186,10.32,10.32,0,0,0,1.67-5.317q0-.176-.044-.571t-.044-.571a16.248,16.248,0,0,0-6.064,1.23,19.136,19.136,0,0,0-5.537,3.384,18.093,18.093,0,0,0-4,4.966A12.105,12.105,0,0,0,334.424,88.563Zm50.977,1.67a10.931,10.931,0,0,1,1.1-4.878,40.12,40.12,0,0,1,2.417-4.263q1.318-2.021,2.417-4.043a8.884,8.884,0,0,0,1.1-4.307q0-.527-.044-1.274a11.54,11.54,0,0,0-.176-1.45,2.591,2.591,0,0,0-.527-1.187,1.249,1.249,0,0,0-1.011-.483,1.852,1.852,0,0,0-.308.044q-.22.044-.22.132-1.23,1.67-2.944,3.735t-3.647,4.087q-1.934,2.021-3.779,3.867t-3.34,3.076q-1.055.967-2.856,2.637t-3.6,3.3l-3.164,2.856a7.237,7.237,0,0,1-1.538,1.23l-4.043-3.428a3.574,3.574,0,0,0,1.538-.352,13.906,13.906,0,0,0,1.45-.791,53.785,53.785,0,0,0,9.536-8.086q4.263-4.57,8.394-9.844.176-.264.923-1.538t1.626-2.9l1.758-3.252q.879-1.626,1.318-2.593a8.411,8.411,0,0,0,.659-1.846,8.745,8.745,0,0,1,.264-1.1.943.943,0,0,1,.483-.571,4,4,0,0,1,1.494-.176q.176,0,.835.088a3.389,3.389,0,0,1,.835.176q1.143,2.373,2.021,4.219t1.494,3.472a19.051,19.051,0,0,1,.923,3.3,20.436,20.436,0,0,1,.308,3.691q-1.143,2.9-2.549,5.933t-2.373,5.757a21.244,21.244,0,0,0-1.187,4.922,4.235,4.235,0,0,0,.967,3.472,5.6,5.6,0,0,0,4.043,1.362,27.754,27.754,0,0,0,8.13-1.494q1.406.7.264,1.714a11.349,11.349,0,0,1-3.472,1.89,33.769,33.769,0,0,1-5.1,1.45,13.8,13.8,0,0,1-4.614.308,5.969,5.969,0,0,1-2.769-.571,4.719,4.719,0,0,1-1.758-1.538,6.783,6.783,0,0,1-.967-2.2A10.47,10.47,0,0,1,385.4,90.232Zm16,2.813v-1.23a2.623,2.623,0,0,1,.132-.835,4.255,4.255,0,0,1,.4-.835q.264-.439.7-1.143.7-1.23,2.637-4.307t4.131-6.5q2.2-3.428,4.175-6.5l2.769-4.307a.8.8,0,0,1,.483-.088h1.187a.915.915,0,0,1,.527.088q.088.088.4.439t.7.747q.4.4.7.747t.483.352a3.263,3.263,0,0,0,1.67-.527q.879-.527,1.8-1.187a18.453,18.453,0,0,1,1.89-1.187,4.165,4.165,0,0,1,2.021-.527,4.334,4.334,0,0,1,2.109.527,6.137,6.137,0,0,1,2.769,3.076,5.073,5.073,0,0,1,.4,1.934,13,13,0,0,1-.571,3.867q-.571,1.846-1.274,3.647t-1.274,3.6a12.284,12.284,0,0,0-.571,3.735,6.349,6.349,0,0,0,.439,2.769q.439.835,2.461.835a14.49,14.49,0,0,0,4.526-.7,14.209,14.209,0,0,1,4.438-.7,5.039,5.039,0,0,1-1.274,3.516,9.245,9.245,0,0,1-3.164,2.241,15.308,15.308,0,0,1-4.043,1.143,27.873,27.873,0,0,1-3.911.308q-3.34,0-4.878-1.89a7.765,7.765,0,0,1-1.538-5.054,10.441,10.441,0,0,1,.747-3.955q.747-1.846,1.67-3.6t1.714-3.516a9.1,9.1,0,0,0,.791-3.779,7.562,7.562,0,0,0-.176-1.406,1.028,1.028,0,0,0-1.143-.879,8.206,8.206,0,0,0-5.229,1.846A20.36,20.36,0,0,0,417,78.455a46.51,46.51,0,0,0-3.428,6.064q-1.538,3.252-2.9,6.064a39.784,39.784,0,0,1-2.593,4.658q-1.23,1.846-2.549,1.846a4.041,4.041,0,0,1-2.988-1.143A3.93,3.93,0,0,1,401.4,93.045Zm37.354-1.758a7.874,7.874,0,0,1,.264-2.153,17.019,17.019,0,0,1,.967-2.417q.615-.879,2.241-3.34l3.428-5.186q1.8-2.725,3.428-5.142t2.241-3.384q.791-1.143,1.23-1.23a10.232,10.232,0,0,1,1.67-.088q.791,0,1.714.088t1.187,1.23a24.637,24.637,0,0,1-3.3,5.669q-2.065,2.681-4.043,5.317a43.225,43.225,0,0,0-3.472,5.405,12.3,12.3,0,0,0-1.494,5.933,10.481,10.481,0,0,1,1.1.088q.747.088,1.626.176t1.626.176a3.345,3.345,0,0,0,1.1,0q.527-.088,1.8-.4l2.725-.659q1.45-.352,2.769-.7t1.846-.527q0,.176.044.571t.044.571a3.426,3.426,0,0,1-1.626,2.9,13.284,13.284,0,0,1-3.779,1.8,22.464,22.464,0,0,1-4.395.879q-2.241.22-3.472.22a12.145,12.145,0,0,1-2.681-.308,7.153,7.153,0,0,1-2.417-1.011,5.6,5.6,0,0,1-1.714-1.8A5.122,5.122,0,0,1,438.75,91.287Zm25.576-51.5q1.143,0,2.109.088a4.656,4.656,0,0,1,1.67.439,2.819,2.819,0,0,1,1.143,1.055,3.634,3.634,0,0,1,.439,1.934v1.143a5.261,5.261,0,0,1-.132,1.187,2.156,2.156,0,0,1-.483.967,1.459,1.459,0,0,1-1.143.4,2.467,2.467,0,0,1-1.978-.879,5.6,5.6,0,0,1-1.1-2.065,11.323,11.323,0,0,1-.439-2.417Q464.326,40.4,464.326,39.783Zm-2.988,53.262v-1.23a2.623,2.623,0,0,1,.132-.835,4.255,4.255,0,0,1,.4-.835q.264-.439.7-1.143.7-1.23,2.637-4.307t4.131-6.5q2.2-3.428,4.175-6.5l2.769-4.307a.8.8,0,0,1,.483-.088h1.187a.915.915,0,0,1,.527.088q.088.088.4.439t.7.747q.4.4.7.747t.483.352a3.263,3.263,0,0,0,1.67-.527q.879-.527,1.8-1.187a18.453,18.453,0,0,1,1.89-1.187,4.165,4.165,0,0,1,2.021-.527,4.334,4.334,0,0,1,2.109.527,6.137,6.137,0,0,1,2.769,3.076,5.073,5.073,0,0,1,.4,1.934,13,13,0,0,1-.571,3.867q-.571,1.846-1.274,3.647t-1.274,3.6a12.284,12.284,0,0,0-.571,3.735,6.349,6.349,0,0,0,.439,2.769q.439.835,2.461.835a14.49,14.49,0,0,0,4.526-.7,14.209,14.209,0,0,1,4.438-.7,5.039,5.039,0,0,1-1.274,3.516,9.245,9.245,0,0,1-3.164,2.241,15.308,15.308,0,0,1-4.043,1.143,27.873,27.873,0,0,1-3.911.308q-3.34,0-4.878-1.89a7.765,7.765,0,0,1-1.538-5.054,10.441,10.441,0,0,1,.747-3.955q.747-1.846,1.67-3.6t1.714-3.516a9.1,9.1,0,0,0,.791-3.779,7.562,7.562,0,0,0-.176-1.406,1.028,1.028,0,0,0-1.143-.879,8.206,8.206,0,0,0-5.229,1.846,20.36,20.36,0,0,0-4.219,4.658,46.51,46.51,0,0,0-3.428,6.064q-1.538,3.252-2.9,6.064a39.784,39.784,0,0,1-2.593,4.658q-1.23,1.846-2.549,1.846a4.041,4.041,0,0,1-2.988-1.143A3.93,3.93,0,0,1,461.338,93.045Zm21.445,50.625a22.341,22.341,0,0,1,1.714-8.965,30.254,30.254,0,0,1,4.526-7.339,43.2,43.2,0,0,1,6.416-6.24q3.6-2.856,7.383-5.537t7.383-5.405a47.354,47.354,0,0,0,6.416-5.8,27.155,27.155,0,0,0,4.526-6.68,18.384,18.384,0,0,0,1.714-8V88.87a2.372,2.372,0,0,0-.088-.835,17.694,17.694,0,0,1-2.373,1.538q-1.758,1.011-3.735,2.109t-3.823,1.978a27.2,27.2,0,0,1-2.637,1.143q-.088,0-.659.088t-1.318.176q-.747.088-1.45.132t-1.143.044q-3.955-.7-5.273-2.769a6.251,6.251,0,0,1-.7-4.878,17.873,17.873,0,0,1,2.769-6.021,38.532,38.532,0,0,1,5.186-6.152,44.1,44.1,0,0,1,6.592-5.273,26.776,26.776,0,0,1,6.943-3.34,12.858,12.858,0,0,1,6.24-.439,6.38,6.38,0,0,1,4.438,3.472,22.671,22.671,0,0,1,0,6.9,55.8,55.8,0,0,1-1.406,6.284q-.879,3.076-1.758,6.2a30.431,30.431,0,0,0-1.055,6.812h.791q.527-.527,1.8-1.846t2.725-2.769q1.45-1.45,2.769-2.725t1.846-1.8a5.083,5.083,0,0,1,1.1-.7,3.124,3.124,0,0,1,1.187-.439v.439a.078.078,0,0,0,.088.088,10.062,10.062,0,0,1-1.8,5.8A27.314,27.314,0,0,1,533.76,97a65.777,65.777,0,0,1-5.273,4.263,38.26,38.26,0,0,0-4.57,3.823q-1.494,3.076-3.252,7.69T516.8,122.62q-2.109,5.229-4.7,10.635a70.066,70.066,0,0,1-5.8,9.976,41.838,41.838,0,0,1-7.075,7.866,18.948,18.948,0,0,1-8.613,4.263,6.234,6.234,0,0,1-3.823-1.143,8.135,8.135,0,0,1-2.417-2.856,13.013,13.013,0,0,1-1.23-3.779A23.348,23.348,0,0,1,482.783,143.67Zm4.658,4.746a3.347,3.347,0,0,0,1.67,2.021,6.4,6.4,0,0,0,2.2.352q2.285,0,5.01-2.373a38.377,38.377,0,0,0,5.493-6.108A76.564,76.564,0,0,0,507.129,134q2.549-4.57,4.526-8.877a78.773,78.773,0,0,0,3.164-7.866,18.822,18.822,0,0,0,1.187-5.317q0-.176-.044-.571t-.044-.571a9.192,9.192,0,0,1-1.187.571,4.656,4.656,0,0,0-1.1.571q-3.691,2.725-8.306,6.021a70.5,70.5,0,0,0-8.613,7.251,42.255,42.255,0,0,0-6.724,8.569,19.279,19.279,0,0,0-2.725,9.976v.967q0,.7.044,1.406t.088,1.362Q487.441,148.152,487.441,148.416ZM526.2,70.9a10.489,10.489,0,0,0-3.691.923,33.683,33.683,0,0,0-4.878,2.5,59.866,59.866,0,0,0-5.229,3.6,45.167,45.167,0,0,0-4.79,4.219,23.967,23.967,0,0,0-3.472,4.395,7.986,7.986,0,0,0-1.318,4.043,16.923,16.923,0,0,0,4.482-.747,40.891,40.891,0,0,0,5.493-2.021,50.217,50.217,0,0,0,5.669-2.988,37.933,37.933,0,0,0,5.054-3.647,21.531,21.531,0,0,0,3.647-3.955,6.934,6.934,0,0,0,1.406-3.955A2.1,2.1,0,0,0,526.2,70.9Zm57.041,19.951a3.093,3.093,0,0,1,.439-1.494,7.116,7.116,0,0,1,2.637-2.637,3.093,3.093,0,0,1,1.494-.439h.571a1.362,1.362,0,0,1,.571.088,4.123,4.123,0,0,0-1.187,2.285,21.522,21.522,0,0,0-.132,2.461,5.485,5.485,0,0,0,.923,3.3,6.739,6.739,0,0,0,2.329,2.021,10.594,10.594,0,0,0,3.12,1.055,18.659,18.659,0,0,0,3.3.308,39.012,39.012,0,0,0,12.129-1.8,40.245,40.245,0,0,0,10.151-4.922,44.506,44.506,0,0,0,8.394-7.383,76.242,76.242,0,0,0,6.987-9.229,108.126,108.126,0,0,0,5.889-10.327q2.681-5.361,5.054-10.811h-.439a.078.078,0,0,1-.088-.088,9.909,9.909,0,0,0-5.1,1.45q-2.461,1.45-4.922,3.252a52.078,52.078,0,0,1-5.01,3.252,10.528,10.528,0,0,1-5.273,1.45q0-.7,2.065-2.637t5.229-4.482q3.164-2.549,6.812-5.361t6.768-5.142q3.12-2.329,5.229-3.867l2.109-1.538a2.458,2.458,0,0,1,2.373,1.362,5.976,5.976,0,0,1,.7,2.769q0,.264-.044.879a1.614,1.614,0,0,1-.132.7q-3.867,8.35-6.416,13.887t-4.131,8.877q-1.582,3.34-2.329,4.966t-.967,2.153q-.22.527-.088.4a1,1,0,0,1,.4-.22,26.729,26.729,0,0,1,3.472-.923q2.593-.571,5.537-1.187t5.537-1.1q2.593-.483,3.56-.659l1.055-1.055q3.867-8.086,7.954-16.04t8.042-15.952q1.67-1.406,2.2-.659a4.09,4.09,0,0,1,.483,2.417,14.718,14.718,0,0,1-.571,3.56,16.732,16.732,0,0,1-.967,2.769L657.334,94.275a3.824,3.824,0,0,1-1.67,2.109,5.953,5.953,0,0,1-2.2.352q-.791,0-1.758-.088a1.334,1.334,0,0,1-1.23-1.143,17.482,17.482,0,0,0,3.12-3.823,34.359,34.359,0,0,0,2.5-4.834,30.219,30.219,0,0,0,1.626-5.01A20.241,20.241,0,0,0,658.3,77.4a1.885,1.885,0,0,1-.483-.088.675.675,0,0,0-.483,0,38.185,38.185,0,0,1-5.8,1.362q-3.076.483-6.152,1.055a41.271,41.271,0,0,0-5.889,1.538,14.585,14.585,0,0,0-4.922,2.813q-5.1,4.307-8.789,7.69a49.652,49.652,0,0,1-7.559,5.757,31.269,31.269,0,0,1-8.7,3.6,49.748,49.748,0,0,1-12.041,1.23,24.875,24.875,0,0,1-5.449-.571A13.332,13.332,0,0,1,587.5,99.9a9.3,9.3,0,0,1-3.12-3.516A11.937,11.937,0,0,1,583.242,90.848Zm90.264,1.758a13.065,13.065,0,0,1,.791-3.735,51.858,51.858,0,0,1,2.065-5.229q1.274-2.812,2.9-5.713a61.013,61.013,0,0,1,3.3-5.273,29.553,29.553,0,0,1,3.164-3.867,4.1,4.1,0,0,1,2.637-1.494q2.461,0,2.461,2.373a3.546,3.546,0,0,1-.4,1.758,8.194,8.194,0,0,1-.923,1.318,14.475,14.475,0,0,1-1.143,1.187,5.459,5.459,0,0,0-1.055,1.362q-.791,1.318-1.934,3.6t-2.241,4.438q-1.1,2.153-1.89,3.823A12.021,12.021,0,0,0,680.449,89v1.143a15.777,15.777,0,0,0,6.592-2.944,40.383,40.383,0,0,0,6.021-5.493q2.856-3.164,5.449-6.636t4.878-6.416a44.749,44.749,0,0,1,4.307-4.878,5.737,5.737,0,0,1,3.779-1.934,12.983,12.983,0,0,1-1.318,5.889q-1.318,2.637-2.856,5.186t-2.856,5.229a13.459,13.459,0,0,0-1.318,6.021,3.064,3.064,0,0,0,1.714,2.5,17.629,17.629,0,0,0,3.955,1.846,38.807,38.807,0,0,0,4.351,1.187q2.109.439,2.9.527v2.285q-2.021.088-5.01.044a31.9,31.9,0,0,1-5.977-.659,17.132,17.132,0,0,1-5.405-2.065,6.982,6.982,0,0,1-3.208-4.263,30.417,30.417,0,0,0-4.395,3.516q-2.109,2.021-4.351,3.779a27.639,27.639,0,0,1-4.7,2.988,11.819,11.819,0,0,1-5.361,1.23,3.623,3.623,0,0,1-2.944-1.494A4.8,4.8,0,0,1,673.506,92.605ZM715.078,89a7.184,7.184,0,0,1,.571-2.593,3.041,3.041,0,0,1,1.8-1.89,1.617,1.617,0,0,1,.483-.132,3.265,3.265,0,0,0,.571-.132,2.582,2.582,0,0,1,.615-.088V89a23.814,23.814,0,0,0,1.626-1.934q1.1-1.406,2.285-3.032t2.2-3.12a22.415,22.415,0,0,0,1.362-2.2l20.479-39.9.483-.527a2.679,2.679,0,0,1,1.143-.747,1.772,1.772,0,0,1,1.45.22,4.346,4.346,0,0,1,1.494,2.285L739.16,65.184v1.055a29.135,29.135,0,0,1,4.57,1.011,11.044,11.044,0,0,1,3.647,1.89,8.735,8.735,0,0,1,2.417,3.032,9.847,9.847,0,0,1,.879,4.351,15.36,15.36,0,0,1-2.241,8.042,23.847,23.847,0,0,1-5.757,6.5,29.464,29.464,0,0,1-7.778,4.395,23.015,23.015,0,0,1-8.218,1.626A16.3,16.3,0,0,1,722.9,96.6a13.475,13.475,0,0,1-3.735-1.494,10.109,10.109,0,0,1-2.9-2.549A5.665,5.665,0,0,1,715.078,89Zm25.049-17.227a4.469,4.469,0,0,0-2.681,1.143,17.165,17.165,0,0,0-2.856,2.944,37.318,37.318,0,0,0-2.725,4.043,49.871,49.871,0,0,0-2.329,4.438,36.265,36.265,0,0,0-1.626,4.131,10.814,10.814,0,0,0-.615,3.076,16.107,16.107,0,0,0,5.537-1.143,25.147,25.147,0,0,0,5.757-3.032,18.809,18.809,0,0,0,4.482-4.395,8.83,8.83,0,0,0,1.8-5.229,8.7,8.7,0,0,0-.967-4.175Q742.939,71.775,740.127,71.775Z" transform="translate(914 399)" fill="#082cbd"/>
  </g>
</svg>
