<svg xmlns="http://www.w3.org/2000/svg" width="797.773" height="210" viewBox="0 0 797.773 210">
  <defs>
      <style>
          @import url('../fonts/la-belle-aurore.ttf');
          @import url('../fonts/Monotype Corsiva.ttf');
      </style>
  </defs>
  
  <g id="logo_blue" transform="translate(-92.227 -93)">
    <g id="logo-icon" transform="translate(92.227 99.58)">
      <g id="layer101">
        <path id="Path_1" data-name="Path 1" d="M0,91.21V0H227.878V182.42H0Z" fill="none"/>
      </g>
      <g id="layer102" transform="translate(12.078 7.039)">
        <path id="Path_2" data-name="Path 2" d="M838.893,3373.729c-5.044-4.751-11.878-7.713-21.351-9.209a99.107,99.107,0,0,0-19.8.029,171.531,171.531,0,0,0-20.207,3.725,23.613,23.613,0,0,1-3.578.762c-.088-.058,4.78-4.6,10.793-10.059,5.983-5.455,16.453-15.016,23.228-21.175,6.833-6.217,13.667-12.2,15.28-13.344,1.613-1.173,3.109-2.258,3.285-2.434.616-.587,5.455-1.584,7.6-1.584a14.533,14.533,0,0,1,9.708,3.666c1.554,1.379,5.074,5.954,5.074,6.6a1.276,1.276,0,0,0,.5.762c.293.205.44.469.323.557-.117.117-.587-.235-1.026-.762A18.506,18.506,0,0,0,831.5,3325.1c-1.554.616-6.042,5.573-11.115,12.347-2.845,3.783-7.332,9.737-10,13.227l-4.81,6.335h6.511a55.11,55.11,0,0,1,15.72,1.672,71.575,71.575,0,0,1,11.086,4.106c.821.41,1.584.762,1.642.762a3.764,3.764,0,0,0,.7-1.232c.88-1.965,10.881-23.052,11.878-25.075a7.483,7.483,0,0,1,1.026-1.7,16.171,16.171,0,0,1-.616,3.138c-.7,2.757-5.631,23.14-5.9,24.372-.059.264-.029.44.059.381.117-.059,1.584-.88,3.285-1.848a133.731,133.731,0,0,1,28.448-11.819,99.149,99.149,0,0,1,27.862-3.637,103.32,103.32,0,0,1,29.269,3.7,21.287,21.287,0,0,0,3.725.763c.088-.059-3.109-9.766-7.068-21.527s-7.42-22.025-7.684-22.788c-.528-1.672-1.261-2.083-4.751-2.728-7.244-1.32-17.567.763-28.653,5.778a90.656,90.656,0,0,0-11.643,6.159,15.8,15.8,0,0,1-1.848,1.144,34.006,34.006,0,0,0-5.132,3.784c-.616.557-1.115.85-1.115.645s-.176-.264-.352-.176c-1.144.587,7.743-7.713,10.382-9.678a94.986,94.986,0,0,1,20.764-11.584c10.939-4.282,19.18-5.1,23.9-2.317,1.114.675.821.059,4.868,9.942,1.789,4.429,3.9,9.59,4.663,11.438s4.253,10.382,7.772,18.917c3.519,8.563,7.1,17.245,7.948,19.327a27.3,27.3,0,0,1,1.466,3.93,33.137,33.137,0,0,1-4.194-1.056,123.022,123.022,0,0,0-38.947-5.25,128.418,128.418,0,0,0-45.37,9.561c-3.754,1.5-11.849,5.132-12.376,5.572-.176.117-1.584.88-3.109,1.672s-3.959,2.111-5.426,2.962a16.175,16.175,0,0,1-2.933,1.525A16.483,16.483,0,0,1,838.893,3373.729Z" transform="translate(-763.34 -3206.062)" fill="#250b9f"/>
        <path id="Path_3" data-name="Path 3" d="M1567.058,363.265a8.745,8.745,0,0,1-.323-1.5c0-.205-.117-.293-.293-.205-.176.117-.293-.293-.293-1.026,0-1.877-3.578-15.016-6.892-25.222-6.8-21.028-14.253-37.1-23.257-50.151-6.393-9.268-14.078-16.746-21.263-20.647-2.669-1.466-7.244-3.109-8.74-3.138l-1-.029.88-.293c1.554-.528,9.942-.411,12.758.176a43.943,43.943,0,0,1,22.406,12.2,75.82,75.82,0,0,1,15.28,21.351c1.408,2.933,1.906,3.549,1.906,2.464,0-.909,1.73-6.364,3.079-9.737,6.6-16.394,18.213-29.739,35.047-40.209,4.634-2.9,13.315-7.3,14.371-7.3a28.231,28.231,0,0,1-3.314,3.607,135.741,135.741,0,0,0-19.474,25.1,188.277,188.277,0,0,0-9.854,20.119,166.067,166.067,0,0,0-10.5,45.018c-.7,7.332-.88,21.908-.323,27.422.147,1.613.235,2.991.205,3.021C1567.41,364.35,1567.234,363.91,1567.058,363.265Z" transform="translate(-1472.94 -240)" fill="#250b9f"/>
        <path id="Path_4" data-name="Path 4" d="M523.878,1241.8c-.381-1.027-.85-2.17-1.056-2.581s-.645-1.349-.968-2.141c-2.61-6.188-9.971-15.515-16.16-20.412a63.609,63.609,0,0,0-24.108-11.438c-7.6-1.848-11.174-2.229-21.057-2.2-8.945,0-13.051.323-18.535,1.408a5.356,5.356,0,0,1-1.994.205c0-.235,9.121-3.05,13.784-4.253a118.646,118.646,0,0,1,31.557-3.93l5.572.147-.088-1.642c-.675-9.62-6.569-23.668-15.837-37.8a35.96,35.96,0,0,1-2.64-4.37c.176-.147,3.578,2.229,6.511,4.546,6.423,5.1,14.576,14.459,20.5,23.609,8.593,13.256,17.069,32.583,22.612,51.676.7,2.434,1.408,4.751,1.584,5.22.176.44.205.792.117.792-.117,0-.059.147.117.323a.768.768,0,0,1,.176.733c-.088.234-.029.41.147.41s.235.293.117.645c-.088.323-.029.557.117.469s.293.411.323,1.115a4.488,4.488,0,0,1-.029,1.291A9.547,9.547,0,0,1,523.878,1241.8Z" transform="translate(-439.174 -1126.01)" fill="#250b9f"/>
        <path id="Path_5" data-name="Path 5" d="M3912.574,579.833c2.464-33.756,12.787-63.964,29.445-86.224a109.244,109.244,0,0,1,10.91-12.318c3.989-3.871,9.15-8.271,9.59-8.153.117.029.44-.176.733-.411.938-.88.528.176-.909,2.346-8.5,12.611-16.453,29.533-19.122,40.678-1.144,4.722-2.17,12.611-1.643,12.611.117,0,3.138-.7,6.716-1.584,14.576-3.578,30-6.687,40.678-8.212a109.019,109.019,0,0,1,16.863-1.5c6.13-.117,6.335-.117,4.37.264-2.815.557-5.484,1.32-12.845,3.7a228.327,228.327,0,0,0-24.665,9.3c-5.719,2.464-16.893,8.065-18.066,9.062a1.453,1.453,0,0,1-.675.411,82.572,82.572,0,0,0-8.388,5.074c-11.614,7.713-20.441,16.1-26.571,25.134a56.083,56.083,0,0,0-5.543,10.411C3912.574,582.825,3912.369,582.678,3912.574,579.833Z" transform="translate(-3809.834 -465.601)" fill="#250b9f"/>
        <path id="Path_6" data-name="Path 6" d="M4090,4182.081c0-.205.088-.293.205-.205a.351.351,0,0,1,0,.41C4090.088,4182.375,4090,4182.286,4090,4182.081Z" transform="translate(-3982.127 -4066.236)" fill="#250b9f"/>
        <path id="Path_7" data-name="Path 7" d="M411.876,2920.816a.353.353,0,0,1,.411,0c.088.117,0,.206-.205.206S411.788,2920.933,411.876,2920.816Z" transform="translate(-411.842 -2842.129)" fill="#250b9f"/>
        <path id="Path_8" data-name="Path 8" d="M1331.264,1961.338a13.85,13.85,0,0,1-8.593-6.6c-1.291-2.581-1.056-5.9.616-7.772,4.164-4.751,14.077-2.024,17.215,4.751,1.965,4.223.117,8.447-4.194,9.59A8.453,8.453,0,0,1,1331.264,1961.338Z" transform="translate(-1295.157 -1894.588)" fill="#250b9f"/>
        <path id="Path_9" data-name="Path 9" d="M5144.746,1509.2a7.049,7.049,0,0,1-3.812-3.607,8.461,8.461,0,0,1-.41-3.461c.293-5.572,5.25-10.675,10.734-11.027a6.161,6.161,0,0,1,5.1,1.613c1.555,1.408,2.111,3.05,1.965,5.719a10.607,10.607,0,0,1-3.05,6.98C5152.107,1508.822,5148.207,1510.23,5144.746,1509.2Z" transform="translate(-5001.827 -1454.39)" fill="#250b9f"/>
        <path id="Path_10" data-name="Path 10" d="M2965.924,933.4c-3.578-1.554-5.924-5.572-5.924-10.177,0-8.329,7.479-12.494,12.758-7.068,3.871,3.959,4.252,11.262.85,15.309A7.246,7.246,0,0,1,2965.924,933.4Z" transform="translate(-2885.268 -893.954)" fill="#250b9f"/>
      </g>
    </g>
    <text id="ED-FLIX" transform="translate(345 93)" fill="#250b9f" font-size="138" font-family="MonotypeCorsiva, Monotype Corsiva"><tspan x="0" y="109">ED-FLIX</tspan></text>
    <text id="An_E-Learning_Hub" data-name="An E-Learning Hub" transform="translate(488 220)" fill="#250b9f" font-size="45" font-family="LaBelleAurore, La Belle Aurore"><tspan x="0" y="48">An E-Learning Hub</tspan></text>
  </g>
</svg>
